<svg id="Group_446" data-name="Group 446" xmlns="http://www.w3.org/2000/svg" width="188.678" height="52.738" viewBox="0 0 188.678 52.738">
  <g id="logo_white" data-name="logo white">
    <path id="Path_3" data-name="Path 3" d="M304.032,281.769h-4.3a.99.99,0,0,0-.99.99v17.194h-9.426V282.806a.99.99,0,0,0-.991-.99h-4.3a.99.99,0,0,0-.99.99v17.8a27.506,27.506,0,0,1-.389,4.836,11.225,11.225,0,0,1-1.2,3.53,5.467,5.467,0,0,1-2,2.093,6.016,6.016,0,0,1-3.088.721,6.391,6.391,0,0,1-2.639-.533,5.12,5.12,0,0,1-2-1.63,8.645,8.645,0,0,1-1.376-3.062,19.692,19.692,0,0,1-.515-4.857,25.751,25.751,0,0,1,.357-4.182,32.682,32.682,0,0,1,1.17-4.677.99.99,0,0,0-1.119-1.28l-4.725.86a.989.989,0,0,0-.775.7c-.2.691-.387,1.431-.562,2.2-.18.783-.337,1.583-.466,2.376s-.23,1.586-.3,2.34-.1,1.439-.1,2.043a26.3,26.3,0,0,0,.646,5.977,13.948,13.948,0,0,0,2.162,4.945,10.4,10.4,0,0,0,4,3.349,13.461,13.461,0,0,0,5.872,1.182c3.912,0,6.98-1.077,9.121-3.2,1.962-1.946,3.245-4.849,3.819-8.638h15.075a.99.99,0,0,0,.991-.99V282.759A.99.99,0,0,0,304.032,281.769Z" transform="translate(-263.333 -264.899)" fill="#fff"/>
    <path id="Path_4" data-name="Path 4" d="M480.934,287.475a10.287,10.287,0,0,0-2.041-3.843,8.194,8.194,0,0,0-3.281-2.273,11.669,11.669,0,0,0-4.145-.707,13.252,13.252,0,0,0-4.772.83,10.142,10.142,0,0,0-3.779,2.538,11.486,11.486,0,0,0-2.434,4.2,18.075,18.075,0,0,0-.84,5.784,9.645,9.645,0,0,1-.358,2.871,4.48,4.48,0,0,1-.866,1.643,2.562,2.562,0,0,1-1.1.751,4.593,4.593,0,0,1-1.453.236h-5.023V282.358a.991.991,0,0,0-.991-.99h-4.3a.991.991,0,0,0-.991.99V299.5H411.978V282.358a.99.99,0,0,0-.99-.99h-4.3a.99.99,0,0,0-.99.99v17.1H401a.973.973,0,0,0-.288.048h-.475a4.008,4.008,0,0,1-3.332-1.538A7.9,7.9,0,0,1,395.59,293V282.358a.99.99,0,0,0-.99-.99h-4.3a.99.99,0,0,0-.99.99v12.457a8.766,8.766,0,0,1-.5,3.268,2.821,2.821,0,0,1-2.125,1.422c-3.848.061-3.784-2-3.784-2l0-.006a3.478,3.478,0,0,1-.078-.722V282.358a.99.99,0,0,0-.99-.99h-4.3a.99.99,0,0,0-.99.99v9.5c0,3.083-.356,5.25-1.056,6.442a2.866,2.866,0,0,1-2.679,1.541,3,3,0,0,1-2.423-1.016c-.609-.708-.93-2.094-.93-4.008V282.358a.99.99,0,0,0-.99-.99h-4.3a.991.991,0,0,0-.991.99V293a7.9,7.9,0,0,1-1.31,4.966,4.009,4.009,0,0,1-3.332,1.538h-.475a.978.978,0,0,0-.289-.048h-5.4V282.311a.99.99,0,0,0-.99-.99h-4.3a.99.99,0,0,0-.99.99v22.384c0,2.222-.432,3.842-1.282,4.812-.817.932-2.221,1.4-4.171,1.4a15.309,15.309,0,0,1-1.972-.135.99.99,0,0,0-1.113.873l-.477,4.3a.99.99,0,0,0,.871,1.093,22.776,22.776,0,0,0,2.6.15,14.583,14.583,0,0,0,5.662-.962,9.352,9.352,0,0,0,3.7-2.726,10.194,10.194,0,0,0,1.933-4.092,21.2,21.2,0,0,0,.515-4.151h6.658a8.845,8.845,0,0,0,3.975-.988,7.054,7.054,0,0,0,2.3-1.862,6.841,6.841,0,0,0,2.151,2.105,7.857,7.857,0,0,0,4.171,1.221,9.41,9.41,0,0,0,5.3-1.337,7.974,7.974,0,0,0,2.029-1.954c1.675,2.546,5.255,3.291,7.45,3.291a10.569,10.569,0,0,0,4.914-1.221,6.827,6.827,0,0,0,2.151-2.105,7.057,7.057,0,0,0,2.3,1.862,8.844,8.844,0,0,0,3.974.988h55.533l.02,0a8.566,8.566,0,0,0,5.177-1.46,7.61,7.61,0,0,0,1.949-2.114,10.291,10.291,0,0,0,2.724,2.184,13.754,13.754,0,0,0,6.786,1.392h8.687a.99.99,0,0,0,.99-.99V292.834A18.626,18.626,0,0,0,480.934,287.475Zm-5.589,12.03h-2.589c-2.32,0-4.016-.536-5.042-1.592s-1.557-2.852-1.557-5.318a11.979,11.979,0,0,1,.285-2.7,5.84,5.84,0,0,1,.854-2.008,3.934,3.934,0,0,1,1.418-1.268,4.5,4.5,0,0,1,2.133-.458,4.156,4.156,0,0,1,1.91.417,3.9,3.9,0,0,1,1.375,1.169,5.825,5.825,0,0,1,.895,1.863,8.567,8.567,0,0,1,.319,2.359Z" transform="translate(-292.942 -264.45)" fill="#fff"/>
    <g id="Group_3" data-name="Group 3" transform="translate(10.22)">
      <circle id="Ellipse_10" data-name="Ellipse 10" cx="2.971" cy="2.971" r="2.971" transform="translate(0 17.29)" fill="#d62f2f"/>
      <circle id="Ellipse_11" data-name="Ellipse 11" cx="2.971" cy="2.971" r="2.971" transform="translate(68.818 6.667)" fill="#d62f2f"/>
      <circle id="Ellipse_12" data-name="Ellipse 12" cx="2.971" cy="2.971" r="2.971" transform="translate(77.207 6.667)" fill="#d62f2f"/>
      <circle id="Ellipse_13" data-name="Ellipse 13" cx="2.971" cy="2.971" r="2.971" transform="translate(98.732 6.667)" fill="#d62f2f"/>
      <circle id="Ellipse_14" data-name="Ellipse 14" cx="2.971" cy="2.971" r="2.971" transform="translate(106.379 6.667)" fill="#d62f2f"/>
      <circle id="Ellipse_15" data-name="Ellipse 15" cx="2.971" cy="2.971" r="2.971" transform="translate(73.012)" fill="#d62f2f"/>
      <circle id="Ellipse_16" data-name="Ellipse 16" cx="2.971" cy="2.971" r="2.971" transform="translate(141.975 6.667)" fill="#d62f2f"/>
      <circle id="Ellipse_17" data-name="Ellipse 17" cx="2.971" cy="2.971" r="2.971" transform="translate(17.139 43.902)" fill="#d62f2f"/>
      <circle id="Ellipse_18" data-name="Ellipse 18" cx="2.971" cy="2.971" r="2.971" transform="translate(24.785 43.902)" fill="#d62f2f"/>
    </g>
  </g>
</svg>
